#!OML:ASF G:\JayActor3\Patient Classification 1\Patient 1\Session 6\male.ASF
:FULLY-SPECIFIED
:DEGREES
1280
root -0.659317 15.9857 4.49824 174.089 -10.6689 -171.93
lowerback 6.20447 -0.32281 5.39226
upperback 1.16892 -0.142496 0.321384
thorax -2.28121 -0.138659 -2.68308
lowerneck 12.0548 13.4337 4.56373
upperneck -18.6526 19.9099 5.84549
head -7.94444 8.16948 -0.792555
rclavicle 2.23012e-014 9.54166e-015
rhumerus -34.3137 17.6191 -74.9472
rradius 73.8109
rwrist 12.7366
rhand -51.7742 9.90063
rfingers 7.12502
rthumb -24.2911 -18.5804
lclavicle 2.23012e-014 9.54166e-015
lhumerus 4.03776 -31.6334 89.2987
lradius 77.4977
lwrist 10.3474
lhand -35.0937 7.39246
lfingers 7.12502
lthumb -8.23516 37.212
rfemur 0.501591 -9.03824 26.0699
rtibia 36.7803
rfoot -29.9506 -17.554
rtoes -2.95775
lfemur -18.3818 8.81555 8.54641
ltibia 20.1296
lfoot 14.896 17.2264
ltoes -5.47786
1281
root -0.758354 15.9958 4.45768 174.183 -10.4913 -171.924
lowerback 6.04878 -0.277232 5.53275
upperback 1.14228 -0.0803281 0.293504
thorax -2.21654 -0.106527 -2.79592
lowerneck 12.0425 13.4491 4.5801
upperneck -18.6431 19.9279 5.82136
head -7.93483 8.18142 -0.8023
rclavicle -5.49143e-015 1.19271e-014
rhumerus -34.3862 17.1166 -74.5267
rradius 73.5378
rwrist 12.6518
rhand -51.7474 9.82692
rfingers 7.12502
rthumb -24.2653 -18.6575
lclavicle -5.49143e-015 1.19271e-014
lhumerus 4.04409 -32.3341 89.4152
lradius 77.5622
lwrist 10.4605
lhand -35.0976 7.42621
lfingers 7.12502
lthumb -8.23896 37.2456
rfemur 0.782502 -8.84357 25.7212
rtibia 36.465
rfoot -29.6482 -17.5962
rtoes -3.47465
lfemur -18.0028 8.83891 8.47578
ltibia 20.2748
lfoot 14.9486 15.9924
ltoes -7.72443
1282
root -0.861108 16.0056 4.41641 174.282 -10.2957 -171.922
lowerback 5.89614 -0.228374 5.68302
upperback 1.10535 -0.0127656 0.26436
thorax -2.16332 -0.0720868 -2.9157
lowerneck 12.0396 13.4682 4.58984
upperneck -18.6202 19.9522 5.808
head -7.92428 8.19669 -0.808874
rclavicle -1.75987e-014 9.54166e-015
rhumerus -34.4754 16.5984 -74.1083
rradius 73.2583
rwrist 12.6169
rhand -51.7234 9.78384
rfingers 7.12502
rthumb -24.2424 -18.7037
lclavicle -1.75987e-014 9.54166e-015
lhumerus 4.03509 -33.0379 89.5217
lradius 77.6411
lwrist 10.593
lhand -35.1042 7.47436
lfingers 7.12502
lthumb -8.24529 37.2935
rfemur 1.07084 -8.64536 25.348
rtibia 36.1403
rfoot -29.3271 -17.6067
rtoes -3.98897
lfemur -17.5821 8.85244 8.3671
ltibia 20.3679
lfoot 14.6186 14.8268
ltoes -10.1321
1283
root -0.967254 16.0156 4.37428 174.383 -10.0816 -171.925
lowerback 5.74764 -0.175571 5.83649
upperback 1.05698 0.0608266 0.234968
thorax -2.12329 -0.0350872 -3.03774
lowerneck 12.0431 13.4878 4.60433
upperneck -18.5762 19.9782 5.79824
head -7.90782 8.21405 -0.814872
rclavicle 2.74571e-014 -1.59028e-015
rhumerus -34.5865 16.0943 -73.6899
rradius 72.9826
rwrist 12.6133
rhand -51.7088 9.79271
rfingers 7.12502
rthumb -24.2284 -18.6967
lclavicle 2.74571e-014 -1.59028e-015
lhumerus 4.00548 -33.7367 89.6288
lradius 77.7303
lwrist 10.7387
lhand -35.1312 7.53395
lfingers 7.12502
lthumb -8.27141 37.352
rfemur 1.3737 -8.4277 24.9508
rtibia 35.7987
rfoot -29.0307 -17.5225
rtoes -4.30657
lfemur -17.1217 8.82597 8.22952
ltibia 20.3873
lfoot 13.9479 13.8658
ltoes -12.2289
1284
root -1.0763 16.0262 4.33115 174.485 -9.84904 -171.929
lowerback 5.60102 -0.11783 5.99015
upperback 1.00111 0.141151 0.207918
thorax -2.09093 0.00494085 -3.15769
lowerneck 12.0484 13.5067 4.61634
upperneck -18.515 20.0029 5.79331
head -7.88668 8.23224 -0.818501
rclavicle 4.48508e-015 -2.22639e-014
rhumerus -34.7105 15.5991 -73.2676
rradius 72.708
rwrist 12.6372
rhand -51.7083 9.78307
rfingers 7.12502
rthumb -24.2279 -18.7064
lclavicle 4.48508e-015 -2.22639e-014
lhumerus 3.96316 -34.4354 89.735
lradius 77.825
lwrist 10.8957
lhand -35.182 7.59575
lfingers 7.12502
lthumb -8.32041 37.4119
rfemur 1.69263 -8.18944 24.5359
rtibia 35.4358
rfoot -28.737 -17.3778
rtoes -4.50633
lfemur -16.6276 8.74957 8.06927
ltibia 20.3275
lfoot 13.067 13.149
ltoes -13.859
1285
root -1.18823 16.0376 4.28712 174.59 -9.61319 -171.933
lowerback 5.45195 -0.0608827 6.14516
upperback 0.939627 0.220214 0.185655
thorax -2.06266 0.0440741 -3.27306
lowerneck 12.0501 13.5245 4.62355
upperneck -18.4323 20.024 5.79035
head -7.85837 8.25126 -0.819519
rclavicle 1.68222e-014 2.22639e-014
rhumerus -34.8443 15.1416 -72.8403
rradius 72.4422
rwrist 12.6555
rhand -51.7183 9.80231
rfingers 7.12502
rthumb -24.2374 -18.6859
lclavicle 1.68222e-014 2.22639e-014
lhumerus 3.91632 -35.1301 89.838
lradius 77.9199
lwrist 11.0635
lhand -35.2508 7.6529
lfingers 7.12502
lthumb -8.38679 37.4664
rfemur 2.02098 -7.96016 24.1057
rtibia 35.0502
rfoot -28.3926 -17.248
rtoes -4.79923
lfemur -16.1203 8.61149 7.88874
ltibia 20.1999
lfoot 12.0678 12.7171
ltoes -14.7965
1286
root -1.3027 16.0499 4.24225 174.697 -9.37939 -171.941
lowerback 5.29988 -0.00197228 6.29141
upperback 0.875707 0.300867 0.167208
thorax -2.03465 0.0839463 -3.37938
lowerneck 12.0422 13.5396 4.63247
upperneck -18.3318 20.0394 5.78668
head -7.82211 8.26967 -0.818958
rclavicle -1.28123e-014 9.54166e-015
rhumerus -34.9853 14.7023 -72.4018
rradius 72.1857
rwrist 12.675
rhand -51.7352 9.77225
rfingers 7.12502
rthumb -24.2536 -18.7138
lclavicle -1.28123e-014 9.54166e-015
lhumerus 3.8719 -35.8312 89.9417
lradius 78.0109
lwrist 11.2378
lhand -35.3107 7.71936
lfingers 7.12502
lthumb -8.44463 37.5305
rfemur 2.35349 -7.74664 23.6576
rtibia 34.6499
rfoot -27.9809 -17.1615
rtoes -5.25427
lfemur -15.6115 8.43836 7.68013
ltibia 20.0264
lfoot 11.0492 12.5125
ltoes -15.1702
1287
root -1.41942 16.0627 4.19675 174.804 -9.15782 -171.955
lowerback 5.14329 0.0543841 6.42259
upperback 0.812418 0.376462 0.154658
thorax -2.00369 0.121412 -3.47045
lowerneck 12.0289 13.5511 4.63914
upperneck -18.2264 20.0471 5.77507
head -7.78255 8.2864 -0.819115
rclavicle 4.03781e-017 -1.03368e-014
rhumerus -35.1261 14.2928 -71.9476
rradius 71.9417
rwrist 12.6753
rhand -51.7304 9.7758
rfingers 7.12502
rthumb -24.249 -18.7108
lclavicle 4.03781e-017 -1.03368e-014
lhumerus 3.83726 -36.5321 90.045
lradius 78.099
lwrist 11.4216
lhand -35.3466 7.77864
lfingers 7.12502
lthumb -8.47923 37.5884
rfemur 2.68325 -7.55676 23.1918
rtibia 34.243
rfoot -27.4835 -17.1528
rtoes -5.9429
lfemur -15.1193 8.2669 7.43441
ltibia 19.8439
lfoot 10.0244 12.4392
ltoes -15.3012
1288
root -1.53764 16.076 4.15096 174.913 -8.95039 -171.991
lowerback 4.98753 0.108078 6.51291
upperback 0.752328 0.445846 0.147825
thorax -1.97056 0.156134 -3.53193
lowerneck 12.0113 13.5628 4.63643
upperneck -18.1239 20.0523 5.75657
head -7.7433 8.30341 -0.819666
rclavicle 9.88066e-015 1.51076e-014
rhumerus -35.26 13.908 -71.4736
rradius 71.7099
rwrist 12.6539
rhand -51.7179 9.74557
rfingers 7.12502
rthumb -24.2371 -18.7426
lclavicle 9.88066e-015 1.51076e-014
lhumerus 3.81736 -37.2294 90.1457
lradius 78.1911
lwrist 11.6203
lhand -35.3472 7.84506
lfingers 7.12502
lthumb -8.4798 37.6548
rfemur 3.00607 -7.38016 22.6975
rtibia 33.8403
rfoot -26.9152 -17.2111
rtoes -6.81035
lfemur -14.6553 8.15832 7.12699
ltibia 19.6852
lfoot 9.0495 12.3571
ltoes -15.4501
1289
root -1.65718 16.0897 4.10503 175.024 -8.76381 -172.038
lowerback 4.82678 0.15921 6.57507
upperback 0.69623 0.509472 0.14528
thorax -1.93117 0.188413 -3.57245
lowerneck 11.9904 13.5724 4.6387
upperneck -18.0317 20.0532 5.72435
head -7.70481 8.31885 -0.82458
rclavicle 1.25918e-014 -6.36111e-015
rhumerus -35.388 13.5381 -70.9829
rradius 71.4891
rwrist 12.6064
rhand -51.6747 9.75522
rfingers 7.12502
rthumb -24.1956 -18.7385
lclavicle 1.25918e-014 -6.36111e-015
lhumerus 3.8158 -37.9292 90.2439
lradius 78.2918
lwrist 11.8399
lhand -35.3084 7.92379
lfingers 7.12502
lthumb -8.44237 37.7351
rfemur 3.31544 -7.21508 22.1882
rtibia 33.4473
rfoot -26.2906 -17.3219
rtoes -7.79346
lfemur -14.2394 8.14417 6.76596
ltibia 19.577
lfoot 8.13855 12.195
ltoes -15.7379
1290
root -1.77757 16.104 4.05936 175.137 -8.60365 -172.093
lowerback 4.66505 0.205007 6.60892
upperback 0.643629 0.564081 0.147695
thorax -1.88879 0.216511 -3.59108
lowerneck 11.9737 13.5821 4.63996
upperneck -17.9607 20.0543 5.68012
head -7.67286 8.33365 -0.834031
rclavicle 1.24551e-015 -6.36111e-015
rhumerus -35.5064 13.1681 -70.4774
rradius 71.2727
rwrist 12.5418
rhand -51.6313 9.72304
rfingers 7.12502
rthumb -24.154 -18.7762
lclavicle 1.24551e-015 -6.36111e-015
lhumerus 3.83155 -38.6354 90.3325
lradius 78.4096
lwrist 12.0852
lhand -35.2487 8.0065
lfingers 7.12502
lthumb -8.38475 37.8201
rfemur 3.6099 -7.05001 21.6696
rtibia 33.0664
rfoot -25.6459 -17.4439
rtoes -8.73504
lfemur -13.8804 8.20682 6.3591
ltibia 19.5309
lfoot 7.25882 11.9617
ltoes -16.0298
